<svg xmlns="http://www.w3.org/2000/svg" xmlns:xlink="http://www.w3.org/1999/xlink" width="1080" zoomAndPan="magnify" viewBox="0 0 810 809.999993" height="1080" preserveAspectRatio="xMidYMid meet" version="1.0"><defs><clipPath id="7b96714304"><path d="M 405 0 C 181.324219 0 0 181.324219 0 405 C 0 628.675781 181.324219 810 405 810 C 628.675781 810 810 628.675781 810 405 C 810 181.324219 628.675781 0 405 0 Z M 405 0 " clip-rule="nonzero"/></clipPath><clipPath id="868c4f9b55"><path d="M 198.75 198.75 L 611.25 198.75 L 611.25 611.25 L 198.75 611.25 Z M 198.75 198.75 " clip-rule="nonzero"/></clipPath><clipPath id="d420543099"><path d="M 405 198.75 C 291.089844 198.75 198.75 291.089844 198.75 405 C 198.75 518.910156 291.089844 611.25 405 611.25 C 518.910156 611.25 611.25 518.910156 611.25 405 C 611.25 291.089844 518.910156 198.75 405 198.75 Z M 405 198.75 " clip-rule="nonzero"/></clipPath><clipPath id="594552d9b3"><path d="M 563 132 L 810 132 L 810 414 L 563 414 Z M 563 132 " clip-rule="nonzero"/></clipPath><clipPath id="755d562d66"><path d="M 704.019531 132.519531 L 844.554688 273.054688 L 704.019531 413.59375 L 563.480469 273.054688 Z M 704.019531 132.519531 " clip-rule="nonzero"/></clipPath><clipPath id="59c9b7051a"><path d="M 704.019531 132.519531 L 844.554688 273.054688 L 704.019531 413.59375 L 563.480469 273.054688 Z M 704.019531 132.519531 " clip-rule="nonzero"/></clipPath><clipPath id="52b75b5f58"><path d="M 534 103 L 734 103 L 734 303 L 534 303 Z M 534 103 " clip-rule="nonzero"/></clipPath><clipPath id="a059382a16"><path d="M 633.75 62.25 L 774.289062 202.789062 L 633.75 343.324219 L 493.210938 202.789062 Z M 633.75 62.25 " clip-rule="nonzero"/></clipPath><clipPath id="165da72390"><path d="M 704.019531 132.519531 C 665.210938 93.710938 602.289062 93.710938 563.480469 132.519531 C 524.671875 171.328125 524.671875 234.246094 563.480469 273.054688 C 602.289062 311.863281 665.210938 311.863281 704.019531 273.054688 C 742.828125 234.246094 742.828125 171.328125 704.019531 132.519531 Z M 704.019531 132.519531 " clip-rule="nonzero"/></clipPath><clipPath id="9fb82d966c"><path d="M 563 396 L 810 396 L 810 678 L 563 678 Z M 563 396 " clip-rule="nonzero"/></clipPath><clipPath id="0892a884e8"><path d="M 563.480469 537.265625 L 704.019531 396.726562 L 844.554688 537.265625 L 704.019531 677.800781 Z M 563.480469 537.265625 " clip-rule="nonzero"/></clipPath><clipPath id="1a306a4595"><path d="M 563.480469 537.265625 L 704.019531 396.726562 L 844.554688 537.265625 L 704.019531 677.800781 Z M 563.480469 537.265625 " clip-rule="nonzero"/></clipPath><clipPath id="7d05f7302d"><path d="M 534 508 L 734 508 L 734 707 L 534 707 Z M 534 508 " clip-rule="nonzero"/></clipPath><clipPath id="cf83cd0ae7"><path d="M 493.210938 607.535156 L 633.75 466.996094 L 774.289062 607.535156 L 633.75 748.070312 Z M 493.210938 607.535156 " clip-rule="nonzero"/></clipPath><clipPath id="1aaea62d7e"><path d="M 563.480469 537.265625 C 524.671875 576.074219 524.671875 638.992188 563.480469 677.800781 C 602.289062 716.609375 665.210938 716.609375 704.019531 677.800781 C 742.828125 638.992188 742.828125 576.074219 704.019531 537.265625 C 665.210938 498.457031 602.289062 498.457031 563.480469 537.265625 Z M 563.480469 537.265625 " clip-rule="nonzero"/></clipPath><clipPath id="68ee30f591"><path d="M 698.828125 283.5 L 810 283.5 L 810 526.5 L 698.828125 526.5 Z M 698.828125 283.5 " clip-rule="nonzero"/></clipPath><clipPath id="46975a6c66"><path d="M 486 304.777344 L 729 304.777344 L 729 506.03125 L 486 506.03125 Z M 486 304.777344 " clip-rule="nonzero"/></clipPath><clipPath id="2359a1b369"><path d="M 527 256 L 604 256 L 604 328 L 527 328 Z M 527 256 " clip-rule="nonzero"/></clipPath><clipPath id="d33fd73d3e"><path d="M 543.632812 256.03125 L 603.609375 308.128906 L 587.101562 327.132812 L 527.128906 275.035156 Z M 543.632812 256.03125 " clip-rule="nonzero"/></clipPath><clipPath id="0588f0622c"><path d="M 543.632812 256.03125 L 603.558594 308.085938 L 587.050781 327.085938 L 527.128906 275.035156 Z M 543.632812 256.03125 " clip-rule="nonzero"/></clipPath><clipPath id="83a73e66de"><path d="M 543 469 L 620 469 L 620 541 L 543 541 Z M 543 469 " clip-rule="nonzero"/></clipPath><clipPath id="4ea66ffb5d"><path d="M 543.601562 521.367188 L 603.558594 469.246094 L 620.070312 488.242188 L 560.117188 540.363281 Z M 543.601562 521.367188 " clip-rule="nonzero"/></clipPath><clipPath id="5ac486c80c"><path d="M 543.601562 521.367188 L 603.507812 469.289062 L 620.019531 488.285156 L 560.117188 540.363281 Z M 543.601562 521.367188 " clip-rule="nonzero"/></clipPath><clipPath id="6255bcc25b"><path d="M 376.875 377.28125 L 433.125 377.28125 L 433.125 433.53125 L 376.875 433.53125 Z M 376.875 377.28125 " clip-rule="nonzero"/></clipPath><clipPath id="ac72956d62"><path d="M 405 377.28125 C 389.46875 377.28125 376.875 389.871094 376.875 405.40625 C 376.875 420.9375 389.46875 433.53125 405 433.53125 C 420.53125 433.53125 433.125 420.9375 433.125 405.40625 C 433.125 389.871094 420.53125 377.28125 405 377.28125 Z M 405 377.28125 " clip-rule="nonzero"/></clipPath><clipPath id="c7980953b0"><path d="M 493.210938 377.28125 L 549.460938 377.28125 L 549.460938 433.53125 L 493.210938 433.53125 Z M 493.210938 377.28125 " clip-rule="nonzero"/></clipPath><clipPath id="bc282d6668"><path d="M 521.335938 377.28125 C 505.804688 377.28125 493.210938 389.871094 493.210938 405.40625 C 493.210938 420.9375 505.804688 433.53125 521.335938 433.53125 C 536.871094 433.53125 549.460938 420.9375 549.460938 405.40625 C 549.460938 389.871094 536.871094 377.28125 521.335938 377.28125 Z M 521.335938 377.28125 " clip-rule="nonzero"/></clipPath><clipPath id="e9063de871"><path d="M 260.625 377.28125 L 316.875 377.28125 L 316.875 433.53125 L 260.625 433.53125 Z M 260.625 377.28125 " clip-rule="nonzero"/></clipPath><clipPath id="1451b7cffa"><path d="M 288.75 377.28125 C 273.21875 377.28125 260.625 389.871094 260.625 405.40625 C 260.625 420.9375 273.21875 433.53125 288.75 433.53125 C 304.28125 433.53125 316.875 420.9375 316.875 405.40625 C 316.875 389.871094 304.28125 377.28125 288.75 377.28125 Z M 288.75 377.28125 " clip-rule="nonzero"/></clipPath><clipPath id="ad3c2ed1d6"><path d="M 224 446 L 411 446 L 411 656 L 224 656 Z M 224 446 " clip-rule="nonzero"/></clipPath><clipPath id="b8d4ae0a9f"><path d="M 278.34375 698.550781 L 170.320312 612.707031 L 302.777344 446.027344 L 410.800781 531.871094 Z M 278.34375 698.550781 " clip-rule="nonzero"/></clipPath><clipPath id="79969fddb3"><path d="M 224.332031 655.628906 L 302.605469 446.242188 L 410.628906 532.089844 Z M 224.332031 655.628906 " clip-rule="nonzero"/></clipPath></defs><g clip-path="url(#7b96714304)"><rect x="-81" width="972" fill="#ff6701" y="-80.999999" height="971.999992" fill-opacity="1"/></g><g clip-path="url(#868c4f9b55)"><g clip-path="url(#d420543099)"><path fill="#ffffff" d="M 198.75 198.75 L 611.25 198.75 L 611.25 611.25 L 198.75 611.25 Z M 198.75 198.75 " fill-opacity="1" fill-rule="nonzero"/></g></g><g clip-path="url(#594552d9b3)"><g clip-path="url(#755d562d66)"><g clip-path="url(#59c9b7051a)"><path fill="#ffffff" d="M 704.019531 132.519531 L 844.554688 273.054688 L 704.019531 413.59375 L 563.480469 273.054688 Z M 704.019531 132.519531 " fill-opacity="1" fill-rule="nonzero"/></g></g></g><g clip-path="url(#52b75b5f58)"><g clip-path="url(#a059382a16)"><g clip-path="url(#165da72390)"><path fill="#ff6701" d="M 633.75 62.25 L 774.289062 202.789062 L 633.75 343.324219 L 493.210938 202.789062 Z M 633.75 62.25 " fill-opacity="1" fill-rule="nonzero"/></g></g></g><g clip-path="url(#9fb82d966c)"><g clip-path="url(#0892a884e8)"><g clip-path="url(#1a306a4595)"><path fill="#ffffff" d="M 563.480469 537.265625 L 704.019531 396.726562 L 844.554688 537.265625 L 704.019531 677.800781 Z M 563.480469 537.265625 " fill-opacity="1" fill-rule="nonzero"/></g></g></g><g clip-path="url(#7d05f7302d)"><g clip-path="url(#cf83cd0ae7)"><g clip-path="url(#1aaea62d7e)"><path fill="#ff6701" d="M 493.210938 607.535156 L 633.75 466.996094 L 774.289062 607.535156 L 633.75 748.070312 Z M 493.210938 607.535156 " fill-opacity="1" fill-rule="nonzero"/></g></g></g><g clip-path="url(#68ee30f591)"><path fill="#ffffff" d="M 698.828125 283.5 L 941.828125 283.5 L 941.828125 526.5 L 698.828125 526.5 Z M 698.828125 283.5 " fill-opacity="1" fill-rule="nonzero"/></g><g clip-path="url(#46975a6c66)"><path fill="#ffffff" d="M 486 304.777344 L 728.917969 304.777344 L 728.917969 506.03125 L 486 506.03125 Z M 486 304.777344 " fill-opacity="1" fill-rule="nonzero"/></g><g clip-path="url(#2359a1b369)"><g clip-path="url(#d33fd73d3e)"><g clip-path="url(#0588f0622c)"><path fill="#ffffff" d="M 543.632812 256.03125 L 603.535156 308.0625 L 587.027344 327.066406 L 527.128906 275.035156 Z M 543.632812 256.03125 " fill-opacity="1" fill-rule="nonzero"/></g></g></g><g clip-path="url(#83a73e66de)"><g clip-path="url(#4ea66ffb5d)"><g clip-path="url(#5ac486c80c)"><path fill="#ffffff" d="M 543.601562 521.367188 L 603.484375 469.3125 L 619.996094 488.308594 L 560.117188 540.363281 Z M 543.601562 521.367188 " fill-opacity="1" fill-rule="nonzero"/></g></g></g><g clip-path="url(#6255bcc25b)"><g clip-path="url(#ac72956d62)"><path fill="#ff6701" d="M 376.875 377.28125 L 433.125 377.28125 L 433.125 433.53125 L 376.875 433.53125 Z M 376.875 377.28125 " fill-opacity="1" fill-rule="nonzero"/></g></g><g clip-path="url(#c7980953b0)"><g clip-path="url(#bc282d6668)"><path fill="#ff6701" d="M 493.210938 377.28125 L 549.460938 377.28125 L 549.460938 433.53125 L 493.210938 433.53125 Z M 493.210938 377.28125 " fill-opacity="1" fill-rule="nonzero"/></g></g><g clip-path="url(#e9063de871)"><g clip-path="url(#1451b7cffa)"><path fill="#ff6701" d="M 260.625 377.28125 L 316.875 377.28125 L 316.875 433.53125 L 260.625 433.53125 Z M 260.625 377.28125 " fill-opacity="1" fill-rule="nonzero"/></g></g><g clip-path="url(#ad3c2ed1d6)"><g clip-path="url(#b8d4ae0a9f)"><g clip-path="url(#79969fddb3)"><path fill="#ffffff" d="M 278.34375 698.550781 L 170.320312 612.707031 L 302.441406 446.449219 L 410.464844 532.296875 Z M 278.34375 698.550781 " fill-opacity="1" fill-rule="nonzero"/></g></g></g></svg>