<?xml version="1.0" encoding="UTF-8"?>
<svg id="Camada_1" data-name="Camada 1" xmlns="http://www.w3.org/2000/svg" xmlns:xlink="http://www.w3.org/1999/xlink" viewBox="0 0 481.3 144.39">
  <defs>
    <style>
      .cls-1 {
        fill: #00cfff;
      }

      .cls-1, .cls-2, .cls-3, .cls-4 {
        stroke-width: 0px;
      }

      .cls-2 {
        fill: #1f1653;
      }

      .cls-3 {
        fill: url(#Gradiente_sem_nome_80);
      }

      .cls-4 {
        fill: url(#Gradiente_sem_nome_83);
      }
    </style>
    <linearGradient id="Gradiente_sem_nome_80" data-name="Gradiente sem nome 80" x1="44.93" y1="59.18" x2="106.46" y2="4" gradientUnits="userSpaceOnUse">
      <stop offset="0" stop-color="#00cfff"/>
      <stop offset=".04" stop-color="#02c2f3"/>
      <stop offset=".27" stop-color="#0e79af"/>
      <stop offset=".46" stop-color="#17437d"/>
      <stop offset=".61" stop-color="#1c225e"/>
      <stop offset=".69" stop-color="#1f1653"/>
    </linearGradient>
    <linearGradient id="Gradiente_sem_nome_83" data-name="Gradiente sem nome 83" x1="13.05" y1="93.47" x2="107.67" y2="-.93" gradientUnits="userSpaceOnUse">
      <stop offset=".09" stop-color="#1f1653"/>
      <stop offset=".54" stop-color="#0e78ae"/>
      <stop offset=".85" stop-color="#04b6e8"/>
      <stop offset="1" stop-color="#00cfff"/>
    </linearGradient>
  </defs>
  <g>
    <path class="cls-3" d="M89.94,21.22v32.77c0,2.52-2.04,4.56-4.56,4.56h-20.2v-12.57c0-2.52-2.04-4.56-4.56-4.56h-12.57v-20.2c0-2.52,2.04-4.56,4.56-4.56h32.77c2.52,0,4.56,2.04,4.56,4.56Z"/>
    <path class="cls-1" d="M73.47,62.37h12c2.47,0,4.47,2.01,4.47,4.47v12c0,2.47-2.01,4.47-4.47,4.47h-16.48v-16.48c0-2.47,2.01-4.47,4.47-4.47Z" transform="translate(152.31 -6.62) rotate(90)"/>
    <path class="cls-1" d="M27.84,16.65h16.39v16.39c0,2.52-2.04,4.56-4.56,4.56h-11.82c-2.52,0-4.56-2.04-4.56-4.56v-11.82c0-2.52,2.04-4.56,4.56-4.56Z" transform="translate(60.87 -6.62) rotate(90)"/>
    <path class="cls-4" d="M65.17,58.55v20.21c0,2.52-2.04,4.56-4.56,4.56H27.83c-2.52,0-4.56-2.04-4.56-4.56v-32.78c0-2.52,2.04-4.56,4.56-4.56h20.21v12.57c0,2.52,2.04,4.56,4.56,4.56h12.57Z"/>
  </g>
  <g>
    <path class="cls-2" d="M133.11,74.63c-4.27,0-7.91-.74-10.92-2.21s-5.46-3.41-7.36-5.83c-1.9-2.41-3.3-5.01-4.19-7.81-.9-2.8-1.34-5.52-1.34-8.16v-1.41c0-2.9.46-5.76,1.38-8.58.92-2.82,2.33-5.38,4.23-7.68,1.9-2.3,4.33-4.15,7.3-5.54,2.97-1.39,6.48-2.08,10.53-2.08s7.92.77,11.07,2.31c3.16,1.54,5.68,3.67,7.55,6.4,1.88,2.73,3.01,5.93,3.39,9.6h-9.22c-.3-2.13-1.04-3.93-2.21-5.38-1.17-1.45-2.67-2.56-4.48-3.33-1.81-.77-3.85-1.15-6.11-1.15s-4.29.41-6.08,1.22c-1.79.81-3.29,1.94-4.48,3.39-1.19,1.45-2.1,3.16-2.72,5.12-.62,1.96-.93,4.12-.93,6.47s.31,4.44.93,6.4c.62,1.96,1.55,3.68,2.78,5.15,1.24,1.47,2.76,2.61,4.58,3.42,1.81.81,3.91,1.22,6.31,1.22,3.5,0,6.44-.86,8.83-2.59,2.39-1.73,3.84-4.15,4.35-7.27h9.22c-.43,3.33-1.56,6.38-3.39,9.15-1.84,2.77-4.35,4.99-7.55,6.66-3.2,1.66-7.02,2.5-11.46,2.5Z"/>
    <path class="cls-2" d="M173.57,74.63c-2.52,0-4.72-.45-6.59-1.34-1.88-.9-3.34-2.18-4.39-3.84-1.05-1.66-1.57-4.99-1.57-7.34,0-2.56.62-4.65,1.86-6.27,1.24-1.62,3.01-2.84,5.31-3.65,2.3-.81,4.99-1.22,8.07-1.22h8v5.38h-8.13c-2.05,0-3.62.49-4.71,1.47-1.09.98-1.63,2.26-1.63,3.84s.54,4.18,1.63,5.16c1.09.98,2.66,1.47,4.71,1.47,1.24,0,2.38-.22,3.42-.67,1.04-.45,1.91-1.22,2.59-2.3s1.07-3.89,1.15-5.77l2.18,2.5c-.21,2.43-.8,5.8-1.76,7.46-.96,1.66-2.28,2.93-3.97,3.81s-3.74,1.31-6.18,1.31ZM184.77,73.73v-11.63h-1.47v-11.46c0-1.96-.49-3.45-1.47-4.45-.98-1-2.48-1.5-4.48-1.5-1.07,0-2.35.02-3.84.06-1.49.04-3,.1-4.51.16s-2.87.14-4.06.22v-7.55c.98-.08,2.08-.17,3.3-.26,1.22-.08,2.49-.14,3.81-.16,1.32-.02,2.56-.03,3.71-.03,3.59,0,6.56.47,8.93,1.41,2.37.94,4.16,2.42,5.38,4.45,1.22,2.03,1.82,4.66,1.82,7.91v22.83h-7.11Z"/>
    <path class="cls-2" d="M197.38,43.72v-6.53h24.58v6.53h-24.58ZM216.97,74.63c-3.24,0-5.9-.42-7.97-1.25-2.07-.83-3.61-2.24-4.61-4.23-1-1.98-1.5-4.66-1.5-8.03V28.86h8.39l-.06,32.84c0,1.71.46,3.02,1.38,3.94.92.92,2.23,1.38,3.94,1.38h5.44v7.62h-4.99Z"/>
    <path class="cls-2" d="M245.33,74.63c-2.99,0-5.6-.51-7.84-1.54-2.24-1.02-4.1-2.4-5.57-4.13-1.47-1.73-2.58-3.66-3.33-5.79-.75-2.13-1.12-4.31-1.12-6.53v-1.22c0-2.3.37-4.53,1.12-6.69.75-2.15,1.85-4.08,3.3-5.76,1.45-1.69,3.27-3.03,5.47-4.03,2.2-1,4.73-1.5,7.59-1.5,3.76,0,6.9.82,9.44,2.46,2.54,1.64,4.45,3.8,5.73,6.47,1.28,2.67,1.92,5.54,1.92,8.61v3.27h-30.79v-5.51h25.16l-2.69,2.69c0-2.22-.33-4.12-.99-5.7-.66-1.58-1.63-2.79-2.91-3.65-1.28-.85-2.9-1.28-4.87-1.28s-3.63.46-4.99,1.38c-1.37.92-2.4,2.21-3.11,3.87-.7,1.66-1.06,3.67-1.06,6.02,0,2.18.34,4.11,1.03,5.79.68,1.69,1.73,3.01,3.14,3.97,1.41.96,3.2,1.44,5.38,1.44s3.88-.44,5.25-1.31c1.37-.87,2.37-2.72,2.75-4h8.26c-.51,2.39-1.62,5.25-3.08,7.04-1.45,1.79-3.3,3.18-5.54,4.16s-4.79,1.47-7.65,1.47Z"/>
    <path class="cls-2" d="M283.35,88.24c-1.68,0-3.39-.06-5.13-.19s-3.34-.3-4.81-.52v-7.55c1.5.17,3.15.33,4.93.48,1.78.15,3.43.23,4.93.23,2.92,0,5.28-.34,7.06-1.03,1.78-.69,3.08-1.77,3.9-3.26.82-1.48,1.23-3.36,1.23-5.64v-6.9l1.94-4.39c-.09,3.27-.73,6.02-1.94,8.26-1.2,2.24-2.84,3.95-4.9,5.13-2.06,1.18-4.45,1.77-7.16,1.77-2.41,0-4.6-.44-6.58-1.32-1.98-.88-3.67-2.13-5.06-3.74-1.4-1.61-2.47-3.48-3.23-5.61-.75-2.13-1.13-4.42-1.13-6.87l.12-2.48c0-2.45.4-4.74,1.19-6.87.8-2.13,1.92-3.99,3.39-5.58,1.46-1.59,3.2-2.82,5.22-3.68,2.02-.86,4.26-1.29,6.71-1.29,2.84,0,5.32.62,7.45,1.87,2.13,1.25,3.81,3.05,5.03,5.42,1.23,2.37,1.88,5.27,1.97,8.71l-1.55.26v-15.16h7.16l-.12,31.96c0,4.26-.73,7.71-2.19,10.35-1.46,2.64-3.71,4.58-6.74,5.81-3.03,1.23-6.93,1.84-11.71,1.84ZM286,66.95c1.72,0,3.29-.39,4.71-1.16,1.42-.77,2.55-1.89,3.39-3.35.84-1.46,1.26-3.23,1.26-5.29l.12-3.25c0-2.02-.44-3.72-1.32-5.1-.88-1.38-2.03-2.42-3.45-3.13-1.42-.71-2.95-1.06-4.58-1.06-1.89,0-3.56.44-5,1.32-1.44.88-2.57,2.13-3.39,3.74-.82,1.61-1.23,3.49-1.23,5.64s.28,5.08,1.1,6.67c.82,1.59,1.94,2.82,3.39,3.68,1.44.86,3.11,1.29,5,1.29Z"/>
    <path class="cls-2" d="M328.36,74.63c-3.07,0-5.78-.49-8.13-1.47-2.35-.98-4.33-2.3-5.95-3.97-1.62-1.66-2.85-3.56-3.68-5.7-.83-2.13-1.25-4.37-1.25-6.72v-1.34c0-2.39.43-4.66,1.28-6.82.85-2.15,2.1-4.08,3.74-5.76,1.64-1.69,3.65-3.01,6.02-3.97,2.37-.96,5.03-1.44,7.97-1.44s5.59.48,7.94,1.44c2.35.96,4.34,2.28,5.99,3.97,1.64,1.69,2.89,3.61,3.75,5.76.85,2.16,1.28,4.43,1.28,6.82v1.34c0,2.35-.42,4.59-1.25,6.72-.83,2.13-2.06,4.03-3.68,5.7-1.62,1.66-3.61,2.99-5.95,3.97-2.35.98-5.04,1.47-8.07,1.47ZM328.36,67.01c2.13,0,3.95-.48,5.44-1.44,1.49-.96,2.63-2.26,3.42-3.91.79-1.64,1.18-3.51,1.18-5.6s-.41-3.97-1.22-5.63-1.96-2.98-3.46-3.94c-1.49-.96-3.29-1.44-5.38-1.44s-3.9.48-5.41,1.44c-1.52.96-2.68,2.27-3.49,3.94-.81,1.66-1.22,3.54-1.22,5.63s.39,3.96,1.18,5.6c.79,1.64,1.93,2.95,3.42,3.91,1.49.96,3.33,1.44,5.51,1.44Z"/>
    <path class="cls-2" d="M352.82,74.63v-37.44h7.04v16.19h-.19c0-4.95,1.07-9.79,3.2-12.37,2.13-2.58,5.27-3.87,9.41-3.87h1.28v8.82h-2.43c-2.99,0-5.3.81-6.95,2.43-1.64,1.62-2.46,3.95-2.46,6.98v19.27h-8.9Z"/>
    <path class="cls-2" d="M379.06,45.31v-8.12h13.76v8.12h-13.76ZM387.19,34.49c-1.75,0-3.04-.45-3.87-1.34-.83-.9-1.25-2.07-1.25-3.52s.42-2.56,1.25-3.46c.83-.9,2.12-1.34,3.87-1.34s3.03.45,3.84,1.34c.81.9,1.22,2.05,1.22,3.46s-.41,2.62-1.22,3.52c-.81.9-2.09,1.34-3.84,1.34ZM383.93,74.63v-37.44h8.9v37.44h-8.9Z"/>
    <path class="cls-2" d="M398.37,74.63l.03-8.26,17.16-20.61v1.02l-1.34-1.79,1.03.51h-16.9v-8.37h26.5v8.56l-17.16,20.61v-.96l1.41,1.79-1.09-.58h17.54l-.03,8.07h-27.14Z"/>
    <path class="cls-2" d="M448.91,74.63c-2.99,0-5.6-.51-7.84-1.54-2.24-1.02-4.1-2.4-5.57-4.13-1.47-1.73-2.58-3.66-3.33-5.79-.75-2.13-1.12-4.31-1.12-6.53v-1.22c0-2.3.37-4.53,1.12-6.69.75-2.15,1.85-4.08,3.3-5.76,1.45-1.69,3.27-3.03,5.47-4.03,2.2-1,4.73-1.5,7.59-1.5,3.76,0,6.9.82,9.44,2.46,2.54,1.64,4.45,3.8,5.73,6.47,1.28,2.67,1.92,5.54,1.92,8.61v3.27h-30.79v-5.51h25.16l-2.69,2.69c0-2.22-.33-4.12-.99-5.7-.66-1.58-1.63-2.79-2.91-3.65-1.28-.85-2.9-1.28-4.87-1.28s-3.63.46-4.99,1.38c-1.37.92-2.4,2.21-3.11,3.87-.7,1.66-1.06,3.67-1.06,6.02,0,2.18.34,4.11,1.03,5.79.68,1.69,1.73,3.01,3.14,3.97,1.41.96,3.2,1.44,5.38,1.44s3.88-.44,5.25-1.31c1.37-.87,2.11-2.72,2.49-4h8.26c-.51,2.39-1.36,5.25-2.81,7.04-1.45,1.79-3.3,3.18-5.54,4.16s-4.79,1.47-7.65,1.47Z"/>
  </g>
  <g>
    <path class="cls-2" d="M353.73,111.11v-18.96h6.4c1.23,0,2.26.22,3.09.65.82.43,1.44,1.02,1.86,1.77.41.75.62,1.59.62,2.54,0,.79-.13,1.47-.4,2.03-.27.56-.63,1.02-1.08,1.36-.46.35-.97.6-1.53.75v.15c.61.04,1.2.26,1.78.64.57.39,1.05.92,1.42,1.62.37.69.56,1.52.56,2.48s-.21,1.81-.64,2.56c-.43.75-1.08,1.34-1.96,1.77-.88.43-2,.64-3.36.64h-6.75ZM355.46,100.71h4.82c.75,0,1.4-.15,1.96-.46s1-.73,1.31-1.28c.32-.54.47-1.16.47-1.86,0-1-.33-1.82-.98-2.46s-1.63-.95-2.93-.95h-4.67v7.01ZM355.46,109.55h5.02c1.46,0,2.54-.32,3.24-.97.7-.65,1.05-1.46,1.05-2.44,0-.72-.17-1.38-.52-1.97-.35-.59-.84-1.06-1.47-1.4s-1.37-.52-2.23-.52h-5.09v7.3Z"/>
    <path class="cls-2" d="M371.41,116.44c-.33,0-.63-.03-.92-.09-.28-.06-.51-.13-.68-.2l.44-1.45c.56.17,1.06.24,1.5.19.44-.05.83-.24,1.17-.59.34-.35.64-.88.91-1.6l.52-1.44-5.23-14.36h1.79l4.22,12.04h.13l4.22-12.04h1.79l-6.02,16.47c-.25.69-.56,1.26-.94,1.72-.37.46-.8.8-1.28,1.03-.49.23-1.03.34-1.62.34Z"/>
    <path class="cls-2" d="M405.27,98.07c-.17-.63-.43-1.22-.76-1.77-.33-.55-.75-1.04-1.24-1.45-.49-.42-1.06-.74-1.69-.98s-1.35-.35-2.13-.35c-1.23,0-2.34.32-3.31.96-.97.64-1.74,1.57-2.31,2.78-.56,1.21-.85,2.67-.85,4.37s.28,3.15.85,4.36c.57,1.21,1.35,2.14,2.34,2.78.99.64,2.12.97,3.4.97,1.17,0,2.2-.26,3.09-.78s1.59-1.26,2.1-2.22.75-2.11.74-3.43l.56.18h-6.07v-1.55h7.2v1.55c0,1.62-.33,3.01-.98,4.19s-1.55,2.09-2.69,2.73c-1.14.64-2.45.96-3.93.96-1.65,0-3.1-.4-4.34-1.2-1.24-.8-2.2-1.93-2.89-3.39-.69-1.46-1.03-3.18-1.03-5.15,0-1.49.2-2.83.59-4.03.39-1.2.96-2.22,1.68-3.07.73-.85,1.58-1.5,2.58-1.96.99-.45,2.09-.68,3.3-.68,1.04,0,1.99.16,2.85.49.86.33,1.62.78,2.28,1.35.66.57,1.2,1.23,1.62,1.97.42.74.71,1.54.86,2.37h-1.78Z"/>
    <path class="cls-2" d="M415.11,111.43c-.86,0-1.64-.17-2.35-.5-.71-.34-1.27-.82-1.69-1.46-.42-.64-.63-1.41-.63-2.33,0-.7.13-1.3.4-1.78.26-.48.64-.88,1.13-1.18s1.06-.55,1.73-.73c.67-.18,1.4-.32,2.2-.42.8-.1,1.47-.19,2.02-.26s.97-.19,1.26-.35.44-.42.44-.78v-.33c0-.97-.29-1.73-.87-2.29-.58-.56-1.41-.84-2.49-.84-1.02,0-1.86.22-2.5.68-.64.45-1.1.98-1.36,1.59l-1.56-.56c.32-.78.77-1.4,1.33-1.87.57-.47,1.2-.8,1.91-1.01.7-.21,1.42-.31,2.14-.31.54,0,1.11.07,1.7.21.59.14,1.14.39,1.64.74.51.35.92.83,1.23,1.45.32.62.47,1.41.47,2.36v9.66h-1.65v-2.25h-.1c-.2.42-.49.83-.88,1.22-.39.39-.88.72-1.46.97s-1.27.38-2.06.38ZM415.33,109.92c.88,0,1.63-.19,2.28-.58.64-.39,1.14-.91,1.49-1.55.35-.65.52-1.36.52-2.13v-2.06c-.12.12-.33.22-.62.32-.29.09-.62.17-.99.25-.37.07-.75.13-1.12.18-.37.05-.7.09-1,.13-.8.1-1.49.25-2.05.46-.57.21-1,.5-1.31.87s-.45.84-.45,1.41c0,.86.31,1.53.93,2,.62.47,1.39.71,2.32.71ZM415.6,94.92l2.37-4.2h1.95l-2.84,4.2h-1.48Z"/>
    <path class="cls-2" d="M427.29,92.15v18.96h-1.65v-18.96h1.65Z"/>
    <path class="cls-2" d="M435.61,111.43c-.86,0-1.64-.17-2.35-.5-.71-.34-1.27-.82-1.69-1.46-.42-.64-.63-1.41-.63-2.33,0-.7.13-1.3.4-1.78.26-.48.64-.88,1.13-1.18s1.06-.55,1.73-.73c.67-.18,1.4-.32,2.2-.42.8-.1,1.47-.19,2.02-.26s.97-.19,1.26-.35.44-.42.44-.78v-.33c0-.97-.29-1.73-.87-2.29-.58-.56-1.41-.84-2.49-.84-1.02,0-1.86.22-2.5.68-.64.45-1.1.98-1.36,1.59l-1.56-.56c.32-.78.77-1.4,1.33-1.87.57-.47,1.2-.8,1.91-1.01.7-.21,1.42-.31,2.14-.31.54,0,1.11.07,1.7.21.59.14,1.14.39,1.64.74.51.35.92.83,1.23,1.45.32.62.47,1.41.47,2.36v9.66h-1.65v-2.25h-.1c-.2.42-.49.83-.88,1.22-.39.39-.88.72-1.46.97s-1.27.38-2.06.38ZM435.84,109.92c.88,0,1.63-.19,2.28-.58.64-.39,1.14-.91,1.49-1.55.35-.65.52-1.36.52-2.13v-2.06c-.12.12-.33.22-.62.32-.29.09-.62.17-.99.25-.37.07-.75.13-1.12.18-.37.05-.7.09-1,.13-.8.1-1.49.25-2.05.46-.57.21-1,.5-1.31.87s-.45.84-.45,1.41c0,.86.31,1.53.93,2,.62.47,1.39.71,2.32.71Z"/>
    <path class="cls-2" d="M451.75,96.89v1.43h-6.79v-1.43h6.79ZM447.08,93.48h1.66v13.91c0,.59.1,1.06.31,1.39.2.34.47.57.8.71.33.14.68.21,1.05.21.22,0,.4-.01.56-.04s.29-.06.41-.09l.35,1.49c-.16.06-.36.12-.59.17-.23.05-.52.08-.87.08-.6,0-1.19-.13-1.75-.4-.56-.26-1.02-.66-1.37-1.18-.36-.52-.54-1.18-.54-1.95v-14.3Z"/>
    <path class="cls-2" d="M459.46,111.43c-.86,0-1.64-.17-2.35-.5-.71-.34-1.27-.82-1.69-1.46-.42-.64-.63-1.41-.63-2.33,0-.7.13-1.3.4-1.78.26-.48.64-.88,1.13-1.18s1.06-.55,1.73-.73c.67-.18,1.4-.32,2.2-.42.8-.1,1.47-.19,2.02-.26s.97-.19,1.26-.35.44-.42.44-.78v-.33c0-.97-.29-1.73-.87-2.29-.58-.56-1.41-.84-2.49-.84-1.02,0-1.86.22-2.5.68-.64.45-1.1.98-1.36,1.59l-1.56-.56c.32-.78.77-1.4,1.33-1.87.57-.47,1.2-.8,1.91-1.01.7-.21,1.42-.31,2.14-.31.54,0,1.11.07,1.7.21.59.14,1.14.39,1.64.74.51.35.92.83,1.23,1.45.32.62.47,1.41.47,2.36v9.66h-1.65v-2.25h-.1c-.2.42-.49.83-.88,1.22-.39.39-.88.72-1.46.97s-1.27.38-2.06.38ZM459.68,109.92c.88,0,1.63-.19,2.28-.58.64-.39,1.14-.91,1.49-1.55.35-.65.52-1.36.52-2.13v-2.06c-.12.12-.33.22-.62.32-.29.09-.62.17-.99.25-.37.07-.75.13-1.12.18-.37.05-.7.09-1,.13-.8.1-1.49.25-2.05.46-.57.21-1,.5-1.31.87s-.45.84-.45,1.41c0,.86.31,1.53.93,2,.62.47,1.39.71,2.32.71Z"/>
  </g>
</svg>