<?xml version="1.0" encoding="utf-8"?>
<svg version="1.1" xmlns="http://www.w3.org/2000/svg" viewBox="0 0 181.8 64.2">
  <g fill="#3761ab">
    <path d="M22.4,53.3h1l0,8.9h-1L22.4,53.3z"/>
    <path d="M27.5,53.3H29l2.8,5.2h0.2l2.8-5.2h1.6l0,8.9h-1l0-7h-0.2l-2.7,5.2h-1.1l-2.7-5.2h-0.2l0,7h-1L27.5,53.3z"/>
    <path d="M40.5,53.3H42l2.8,5.2h0.2l2.8-5.2h1.6l0,8.9h-1l0-7h-0.2l-2.7,5.2h-1.1l-2.7-5.2h-0.2l0,7h-1L40.5,53.3z"/>
    <path d="M53,57.8c0-2.6,2-4.6,4.7-4.6c2.7,0,4.7,2,4.7,4.6c0,2.6-2,4.6-4.7,4.6C55.1,62.4,53,60.4,53,57.8zM61.3,57.8c0-1.9-1.6-3.4-3.6-3.4c-2.1,0-3.6,1.4-3.6,3.4c0,1.9,1.6,3.4,3.6,3.4C59.8,61.1,61.3,59.7,61.3,57.8z"/>
    <path d="M73.1,59.8c0,1.4-1.1,2.4-2.5,2.4h-4.7l0-8.9h4.5c1.3,0,2.3,0.9,2.3,2.2c0,0.9-0.5,1.6-1.3,2C72.5,57.9,73.1,58.8,73.1,59.8z M67,54.5l0,2.5h3.3c0.8,0,1.5-0.5,1.5-1.3c0-0.7-0.6-1.3-1.5-1.3L67,54.5z M72.1,59.6c0-0.9-0.7-1.4-1.7-1.4H67l0,2.9h3.5C71.4,61,72.1,60.4,72.1,59.6z"/>
    <path d="M76.7,53.3h1l0,8.9h-1L76.7,53.3z"/>
    <path d="M87.4,61l0,1.2h-5.7l0-8.9h1l0,7.7H87.4z"/>
    <path d="M90.5,53.3h1l0,8.9h-1L90.5,53.3z"/>
    <path d="M101.9,61v1.2h-6.3l0-8.9h6.2v1.2h-5.2l0,2.6h4.8l0,1.2h-4.8l0,2.7H101.9z"/>
    <path d="M108.9,59.1h-2.4l0,3.2h-1l0-8.9h4c1.7,0,2.9,1.2,2.9,2.9c0,1.4-0.9,2.5-2.3,2.8l2.4,3.2h-1.2L108.9,59.1zM106.4,57.8h3c1.1,0,1.9-0.7,1.9-1.7c0-1-0.8-1.7-1.9-1.7h-3L106.4,57.8z"/>
    <path d="M121.1,53.3h1.2l5.1,6.9h0.2l0-6.9h1l0,8.9h-1.2l-5.1-6.9h-0.2l0,6.9h-1L121.1,53.3z"/>
    <path d="M138.9,61v1.2h-6.3l0-8.9h6.2v1.2h-5.2l0,2.6h4.8l0,1.2h-4.8V61H138.9z"/>
    <path d="M142.2,58.8v-5.5h1l0,5.5c0,1.3,1.1,2.4,2.6,2.4c1.5,0,2.6-1,2.6-2.4l0-5.5h1l0,5.5c0,2-1.6,3.6-3.6,3.6C143.8,62.4,142.2,60.8,142.2,58.8z"/>
    <path d="M154.4,54.5l0,2.7h4.4l0,1.2h-4.4v3.8h-1l0-8.9h5.9v1.2H154.4z"/>
    <path d="M112.4,3.6h0.4c1.9,0,3.5,1.6,3.5,3.5v0c0,1.9-1.6,3.5-3.5,3.5h-0.4c-1.9,0-3.5-1.6-3.5-3.5v0C108.9,5.2,110.5,3.6,112.4,3.6z"/>
    <path d="M150.3,3.6l0.4,0c1.9,0,3.5,1.6,3.5,3.5v0c0,1.9-1.6,3.5-3.5,3.5h-0.4c-1.9,0-3.5-1.6-3.5-3.5v0C146.8,5.2,148.4,3.6,150.3,3.6z"/>
    <path d="M5.6,15.2l5.3,0l0.7,4c1.4-2.5,4.4-4.6,8.1-4.6c3.3,0,6,1.3,7.7,4.6c1.9-3,5-4.6,8.4-4.6c5.7,0,9.6,3.7,9.6,10.8l0,16.6h-6.3l0-15.9c0-4-1.8-5.8-4.5-5.8c-3.3,0-6,2.9-6,8.9l0,12.9h-6.3l0-15.9c0-4-1.8-5.8-4.5-5.8c-3.2,0-6,2.9-6,9.1l0,12.6H5.6L5.6,15.2z"/>
    <path d="M62.1,42.6c-8.2,0-13.4-5.9-13.4-14c0-8.2,5.4-14.1,13.4-14.1c8.7,0,13.2,6.2,13.2,13.3c0,0.7-0.1,1.7-0.2,2.4H54.8c0.6,4.8,3.7,6.8,7.7,6.8c3.4,0,5.4-1.7,6.6-4l5.2,2.4C72.3,39.7,68.2,42.6,62.1,42.6z M54.9,25.8l14,0c-0.5-3.9-3.3-6-6.8-6C58.7,19.7,55.7,21.5,54.9,25.8z"/>
    <path d="M89.7,42.6c-7.2,0-12.9-5.7-12.9-14c0-8.6,6-14,13.1-14c4.1,0,7,2,8.3,4l0-14.8l6.3,0l0,38.3h-5.4l-0.7-3.6C97.1,40.6,93.8,42.6,89.7,42.6z M83.2,28.6c0,4.9,3.3,8.5,7.8,8.5c4.4,0,7.7-3.4,7.7-8.5c0-5-3.3-8.5-7.7-8.5C86.5,20.1,83.2,23.7,83.2,28.6z"/>
    <path d="M109.5,15.2l6.3,0l0,26.7h-6.3L109.5,15.2z"/>
    <path d="M119,28.6c0-8,5.8-14,13.7-14c5.7,0,10,2.8,12,7.5l-5.6,2.4c-1.2-2.7-3.2-4.3-6.5-4.3c-4.3,0-7.2,3.5-7.2,8.5c0,4.9,3,8.5,7.4,8.5c3.3,0,5.3-1.8,6.4-4.3l5.7,2.4c-1.9,4.3-6.2,7.4-12.2,7.4C124.7,42.6,119,36.6,119,28.6z"/>
    <path d="M147.4,15.2h6.3l0,26.7h-6.3L147.4,15.2z"/>
    <path d="M156,35.5l4.8-2.2c1.1,2.7,2.9,4.1,5.5,4.1c2.7,0,4.1-1.4,4.1-3.2c0-1.6-1-2.8-3.9-3.9l-3.4-1.3c-3.5-1.3-5.3-4-5.3-7.4c0-4.1,3.5-7.2,8.4-7.2c4,0,6.7,1.8,8.2,4.9l-4.7,2.7c-0.7-1.8-2-2.7-3.5-2.7s-2.7,1-2.7,2.4c0,1.3,0.8,2.1,2.6,2.8l3.6,1.4c4,1.5,6.4,4.1,6.4,8.3c0,4.7-4,8.3-10,8.3C160.8,42.6,157.5,39.7,156,35.5z"/>
  </g>
  <path fill="#ea653d" d="M71.4,6.4l-2.7-4.6c-6.8,3.9-15,5-16.9,5.2l0,5.3C52.4,12.2,62.7,11.4,71.4,6.4z"/>
</svg>
