<svg viewBox="0 0 1765.6 292.98" xmlns="http://www.w3.org/2000/svg"><path d="m79.31 168.62c-21.77 0-37.84-5.78-48.21-17.33-10.22-11.7-15.33-29.77-15.33-54.21v-81.53l-15.77-2.66v-11.11h59.32v11.11l-18.88 2.89v83.76c0 20.14 3.55 34.66 10.66 43.54 7.26 8.89 17.62 13.33 31.1 13.33s23.55-4.74 30.21-14.22c6.81-9.48 10.22-23.25 10.22-41.32v-85.1l-18.66-2.89v-11.1h51.76v11.11l-16.22 2.67v84.2c0 23.1-5.48 40.36-16.44 51.76s-25.55 17.11-43.77 17.11zm108.69-153.07-17.77-2.67v-11.1h41.32l73.98 108.42 12.44 23.55v-118.2l-19.33-2.67v-11.1h52.43v11.11l-17.77 2.67v151.29h-17.55l-75.54-110.86-17.11-29.33v127.08l21.11 2.22v10.89h-53.99v-10.89l17.77-2.44v-137.97zm177.7 0-18-2.67v-11.1h63.76v11.11l-21.99 2.67v138.19l57.32-2 13.11-37.32 13.55 2-7.78 50.43h-118.41v-10.89l18.44-2.22zm144.35 0-20.66-2.67v-11.1h65.32v11.11l-20.66 2.67v138.19l20.66 2.44v10.66h-65.09v-10.89l20.44-2.22v-138.19zm93.38 0-24.22-2.67v-11.1h58.87l31.33 99.97 7.33 28.21 6.66-28.21 31.11-99.97h58.43v11.11l-24.44 2.67 17.77 137.96 19.33 2.44v10.89h-63.98v-10.89l20.22-2.22-10-99.75-4.67-42.88-9.33 31.99-37.1 116.19h-14.44l-35.99-106.42-13.11-41.99-4 43.1-8.89 99.75 21.99 2.22v10.89h-57.98v-10.89l18.88-2.22 16.22-138.19zm216.22 0-20.66-2.67v-11.1h65.32v11.11l-20.66 2.67v138.19l20.66 2.44v10.66h-65.09v-10.89l20.44-2.22v-138.19zm121.37-2-38.21 1.33-7.78 46.43h-14.66l3.78-59.54h138.41l2.67 59.54h-14l-7.33-46.43-38.43-1.33v140.19l31.55 2.22v10.89h-84.87v-10.89l28.88-2.22v-140.19zm118.06 2-18.22-2.67v-11.1h113.08l3.11 34.44h-12.66l-6.44-21.55-55.1-1.33v62.65l37.1-.67 3.11-18.44h12.22v51.1h-12.22l-3.11-19.11-37.1-.67v66.2l62.65-2.22 11.77-27.99 13.11 4-6.44 38.66h-123.3v-10.89l18.44-2.22zm144.71 0-17.33-2.67v-11.1h29.1c4.59 0 11.18-.3 19.77-.89s15.03-.89 19.33-.89c27.55 0 47.99 6.96 61.32 20.88 13.48 13.77 20.22 33.18 20.22 58.21 0 17.48-3.48 33.03-10.44 46.65-6.81 13.48-16.44 23.99-28.88 31.55-12.44 7.55-26.73 11.33-42.88 11.33-3.55 0-9.63-.3-18.22-.89-8.89-.59-15.55-.89-19.99-.89h-30.44v-10.89l18.44-2.22zm23.55 138.85c5.18 1.18 11.85 1.78 19.99 1.78h6.66c11.11-.15 20.88-2.96 29.33-8.44 8.59-5.48 15.26-13.63 19.99-24.44 4.74-10.96 7.11-24.22 7.11-39.77 0-23.4-5.11-41.17-15.33-53.32-10.07-12.14-25.33-18.22-45.77-18.22-4.3 0-9.4.3-15.33.89-2.52.44-4.74.67-6.66.67v140.85z"/><path d="m1392.2 1.78h66.65v13.77l-19.33 2.89 27.99 100.2 5.11 24.66 5.11-24.66 23.77-81.31-6.22-18.88-14.66-2.89v-13.78h69.54v13.77l-21.33 2.89 27.77 100.2 6 26.66 4.67-26.66 25.33-100.2-19.99-2.89v-13.77h53.54v13.77l-14.22 2.89-42.21 149.52h-29.33l-30.66-103.75-29.33 103.75h-28.88l-45.77-149.29-13.55-3.11zm256.3 16.66-16.66-2.89v-13.77h33.55c3.11 0 7.92-.15 14.44-.44 8.59-.59 16.37-.89 23.33-.89 15.4 0 27.55 1.93 36.43 5.78 9.03 3.7 15.4 9.11 19.11 16.22 3.85 6.96 5.78 15.85 5.78 26.66 0 18.66-5.85 33.18-17.55 43.54-11.55 10.37-27.62 15.55-48.21 15.55-8.15 0-14-.22-17.55-.67v43.77l29.77 2.22v13.33h-79.98v-13.33l17.55-2.22v-132.86zm32.43 74.87c3.41.74 9.18 1.11 17.33 1.11 9.92 0 17.85-3.41 23.77-10.22 6.07-6.96 9.11-18.44 9.11-34.44 0-12.44-2.74-21.48-8.22-27.1-5.33-5.78-13.55-8.66-24.66-8.66-4.15 0-8.44.3-12.89.89-2.07.3-3.55.44-4.44.44z" fill="#e12c2e"/><path d="m1417.91 292.98v-64.75h23.94c4.58 0 8.39.75 11.43 2.24s5.33 3.51 6.87 6.06 2.3 5.45 2.3 8.69c0 2.67-.49 4.92-1.46 6.76s-2.28 3.33-3.93 4.48c-1.65 1.14-3.51 1.99-5.56 2.54v.52c2.23.17 4.37.89 6.43 2.15s3.74 3.04 5.06 5.34 1.98 5.09 1.98 8.37-.8 6.37-2.39 9.04-4.02 4.76-7.28 6.28-7.41 2.28-12.45 2.28zm9.86-36.76h13.34c2.23 0 4.22-.41 5.98-1.24 1.75-.83 3.13-2 4.13-3.52s1.5-3.31 1.5-5.37c0-2.75-.95-5.02-2.85-6.8s-4.74-2.67-8.54-2.67h-13.56zm0 28.33h14.12c4.61 0 7.96-.89 10.06-2.67s3.15-4.08 3.15-6.89c0-2.09-.51-3.96-1.54-5.63s-2.5-2.98-4.41-3.95-4.2-1.46-6.87-1.46h-14.52v20.6z"/><path d="m1501.19 292.98v-25.81l-23.9-38.94h11.47l12.21 20.6c1.3 2.2 2.48 4.33 3.54 6.39s2.14 4.5 3.24 7.34h-3.17c1.1-2.87 2.18-5.35 3.24-7.43 1.06-2.09 2.21-4.19 3.45-6.3l12.08-20.6h11.38l-23.73 38.94v25.81h-9.82z"/><g fill="#4e8cb4"><path d="m1579.09 292.98v-64.75h41.42v8.52h-31.51v19.25h29.25v8.43h-29.25v20.03h31.72v8.52z"/><path d="m1637.51 292.98v-7.26l22.29-22.29c2.32-2.35 4.24-4.43 5.78-6.26s2.7-3.58 3.5-5.28c.8-1.69 1.2-3.53 1.2-5.5 0-2.2-.51-4.11-1.52-5.74-1.01-1.62-2.39-2.87-4.13-3.74s-3.75-1.3-6.04-1.3c-2.41 0-4.48.49-6.24 1.48-1.75.99-3.11 2.38-4.06 4.17-.96 1.8-1.43 3.93-1.43 6.39h-9.34c0-4.06.91-7.61 2.72-10.67s4.31-5.43 7.5-7.13 6.87-2.54 11.04-2.54 7.73.81 10.86 2.43 5.58 3.85 7.37 6.67c1.78 2.83 2.67 6.03 2.67 9.63 0 2.49-.46 4.89-1.37 7.19s-2.46 4.82-4.65 7.56-5.19 6-9.02 9.8l-13.51 13.56v.39h29.42v8.43h-43.02z"/><path d="m1698.98 292.98v-64.75h14.38l14.25 37.33c.38 1.07.83 2.44 1.35 4.11s1.06 3.46 1.61 5.37 1.08 3.78 1.59 5.61.93 3.45 1.28 4.87h-2.13c.38-1.36.81-2.95 1.3-4.76s1.01-3.67 1.56-5.58 1.09-3.72 1.61-5.41c.52-1.7.99-3.09 1.39-4.19l13.99-37.33h14.43v64.75h-9.78v-34.94c0-1.36.01-2.96.04-4.78.03-1.83.07-3.75.13-5.78s.11-4.08.15-6.15.08-4.06.11-5.98h.87c-.64 2.14-1.3 4.31-1.98 6.5s-1.35 4.3-2 6.34-1.27 3.91-1.85 5.61-1.07 3.11-1.48 4.24l-13.34 34.94h-8.39l-13.47-34.94c-.43-1.1-.93-2.48-1.5-4.15s-1.17-3.51-1.83-5.54c-.65-2.03-1.33-4.15-2.04-6.37s-1.41-4.42-2.11-6.63h1.04c.03 1.8.07 3.71.11 5.74s.09 4.07.13 6.13.09 4.02.13 5.89.07 3.51.07 4.93v34.94h-9.65z"/></g></svg>